# xmcd
#
# Track frame offsets:
#	183
#	10733
#	22413
#	36995
#	48820
#	65050
#	76585
#	89645
#	102145
#	113600
#	125090
#	136690
#	150830
#	162783
#	174775
#	188075
#	199928
#	213060
#	223965
#	237843
#
# Disc length: 3300
#
# Revision: 3
# Processed by: cddbd v1.5.1PL0 Copyright (c) Steve Scherf et al.
# Submitted via: audiograbber 1.82.00
# Normalized: r2:DSETVAR2
#
DISCID=030ce214
DTITLE=Various Artist - Blues Gems - Vol. 5
DYEAR=1989
DGENRE=Blues
TTITLE0=Jimmy Reed - Take Out Some Insurance On Me
TTITLE1=Sonny Boy Williamson - Don't Start Me To Talkin'
TTITLE2=Lowell Fulson - Reconsider Baby
TTITLE3=Little Walter - My Babe
TTITLE4=Muddy Waters - Got My Mojo Working
TTITLE5=Bo Diddley - Little Girl
TTITLE6=Howlin' Wolf - I Ain't Superstitous
TTITLE7=George "Wild Child" Butler - Open Up Baby
TTITLE8=Buddy Guy - That's No Lie
TTITLE9=Junior Wells - Little By Little
TTITLE10=John Lee Hooker - I Love You Honey
TTITLE11=Eddie Taylor - Big Town Playboy
TTITLE12=Memphis Slim - My Gal Keeps Me Crying
TTITLE13=Joe Hill Louis - We All Gotta Go
TTITLE14=Sam Lightnin' Hopkins - Rolling and Rolling
TTITLE15=Frank Frost - Ride With You Daddy
TTITLE16=Big Willie Mabon - The Seventh Son
TTITLE17=Elmore James - Madison Blues
TTITLE18=Lightnin' Slim - Bad Feeling Blues
TTITLE19=Billy Boy Arnold - I Ain't Got You
EXTD=Green Line - CD5VIN04
EXTT0=
EXTT1=
EXTT2=
EXTT3=
EXTT4=
EXTT5=
EXTT6=
EXTT7=
EXTT8=
EXTT9=
EXTT10=
EXTT11=
EXTT12=
EXTT13=
EXTT14=
EXTT15=
EXTT16=
EXTT17=
EXTT18=
EXTT19=
PLAYORDER=
